<svg xmlns="http://www.w3.org/2000/svg" xmlns:xlink="http://www.w3.org/1999/xlink" viewBox="0 0 121.15 189.65"><defs><style>.cls-1{fill:none;}.cls-2{fill:#fff;fill-rule:evenodd;}.cls-3{clip-path:url(#clip-path);}.cls-4{clip-path:url(#clip-path-2);}.cls-5{fill:#4c864e;}.cls-6{clip-path:url(#clip-path-3);}.cls-7{fill:#66bb6e;}.cls-8{clip-path:url(#clip-path-5);}</style><clipPath id="clip-path" transform="translate(0 -1.45)"><path class="cls-1" d="M44.73,88.21l1-2.87a15.86,15.86,0,0,1,9.59-9.62v-11a26.28,26.28,0,0,0-10.56,4.9Zm0-42.43V57.2A36.86,36.86,0,0,1,55.29,54V43.3A47.85,47.85,0,0,0,44.73,45.78ZM13,124a58.18,58.18,0,0,0,10.6,11.56v-15A47.51,47.51,0,0,1,13,90.64Zm21.12,18.45a58.22,58.22,0,0,0,10.57,4.17V135.54a47.06,47.06,0,0,1-10.57-5.28Z"/></clipPath><clipPath id="clip-path-2" transform="translate(0 -1.45)"><rect class="cls-1" x="10.49" width="101.98" height="182.49"/></clipPath><clipPath id="clip-path-3" transform="translate(0 -1.45)"><path class="cls-1" d="M34.16,162.17,23.6,158.64V135.56A58.18,58.18,0,0,1,13,124v44.31L44.69,178v-31.4a58.22,58.22,0,0,1-10.57-4.17Z"/></clipPath><clipPath id="clip-path-5" transform="translate(0 -1.45)"><path class="cls-1" d="M76.42,90.64a15.87,15.87,0,0,1-15.84,15.89v10.6a26.5,26.5,0,0,0,0-53,26.79,26.79,0,0,0-5.28.53v11a15.65,15.65,0,0,1,5.28-1,15.89,15.89,0,0,1,15.84,15.9M60.58,43a48.93,48.93,0,0,0-5.28.35V54a35.9,35.9,0,0,1,5.28-.41,37.09,37.09,0,0,1,0,74.18h0v10.6a47.69,47.69,0,0,0,0-95.38"/></clipPath></defs><title>纯图资源 1</title><g id="图层_2" data-name="图层 2"><g id="图层_1-2" data-name="图层 1"><g id="图层_1-2-2" data-name="图层 1-2"><path class="cls-2" d="M60.58,138.33A47.68,47.68,0,0,1,13,90.64V11.16L44.7,1.45V90.64a15.88,15.88,0,0,0,15.85,15.89v10.6A26.48,26.48,0,0,1,34.16,90.64V17.35L23.6,20.88V90.64a37.08,37.08,0,0,0,37,37.09Z" transform="translate(0 -1.45)"/><g class="cls-3"><g class="cls-4"><rect class="cls-5" y="28.82" width="68.33" height="129.43"/></g></g><g class="cls-6"><g class="cls-4"><rect class="cls-7" y="109.56" width="57.76" height="80.09"/></g></g><g class="cls-8"><g class="cls-4"><rect class="cls-7" x="42.26" y="28.47" width="78.89" height="121.44"/></g></g></g></g></g></svg>